<svg xmlns="http://www.w3.org/2000/svg" version="1.1" xmlns:xlink="http://www.w3.org/1999/xlink" width="1500" height="1500" viewBox="0 0 1500 1500"><rect width="1500" height="1500" x="0" y="0" id="background" stroke="transparent" fill="#016630"></rect><svg xml:space="preserve" width="1000" height="1000" data-version="2" data-id="lg_GhYBDvREmIRrukTaTT" viewBox="0 0 451 83" x="250" y="250"><rect width="100%" height="100%" fill="transparent"></rect><path fill="#fff" d="M7.912 54.426q2.1 2.17 5.58 3.63 3.49 1.47 6.49 1.47t4.61-1.5q1.62-1.5 1.62-3.34 0-1.84-2.1-2.78-2.1-.93-5.07-1.5-2.96-.56-5.92-1.46-2.96-.9-5.06-3.07-2.1-2.18-2.1-5.7 0-5.4 3.71-8.63 3.71-3.22 8.89-3.22 7.87 0 13.35 4.42l-2.78 5.03q-1.8-1.58-5.1-2.85-3.3-1.28-6.22-1.28-2.93 0-4.73 1.54-1.8 1.54-1.8 4.39 0 1.72 2.14 2.73 2.14 1.02 5.21 1.65 3.08.64 6.19 1.54 3.11.9 5.25 3t2.14 5.4q0 4.73-3.57 7.69-3.56 2.96-8.4 2.96-4.83 0-9-1.54-4.16-1.53-6.78-4.01.9-1.05 3.45-4.57"></path><rect width="27.75" height="36.22" x="-13.88" y="-18.11" fill="none" rx="0" ry="0" transform="translate(18.84 46.94)"></rect><path fill="#fff" d="M49.232 64.776q-6.22 0-9.49-4.09-3.26-4.09-3.26-9.75t1.95-10.5q1.95-4.84 5.93-8.25 3.97-3.41 9.11-3.41 5.14 0 9.49 4.5l.67-.08.45-5.47 4.58.15q-.23 8.47-.49 24.41t-.41 22.61l4.57-.37-.3 5.77-10.87.83.82-22.28-.37-.3q-2.85 3.08-5.59 4.65-2.74 1.58-6.79 1.58m12.53-19.13v-2.51q0-2.51-2.29-5.66-2.29-3.15-6.56-3.15-4.28 0-6.9 4.57-2.63 4.58-2.63 10.05 0 9.68 8.25 9.68 4.43 0 7.28-3.98 2.85-3.97 2.85-9"></path><rect width="35.85" height="53.4" x="-17.93" y="-26.7" fill="none" rx="0" ry="0" transform="translate(54.9 54.93)"></rect><path fill="#fff" d="m75.782 52.326.15-12.98-.3-10.57 6.98-.45q-.3 14.4-.3 21.3 0 8.92 5.92 8.92 3.08 0 6.04-2.51t3.64-6.86q.97-6.45.97-12.98l-.37-7.42 6.52-.45q.3 18.37.3 21.22 0 4.13.98 12.3l.37 2.78-6 .37-1.2-7.35-.45-.15q-3.45 4.65-8.62 6.45-2.18.83-4.35.83-4.8 0-7.54-3.64t-2.74-8.81"></path><rect width="31.05" height="36.67" x="-15.53" y="-18.34" fill="none" rx="0" ry="0" transform="translate(91.66 47.16)"></rect><path fill="#fff" d="M122.282 64.996q-4.87 0-7.99-2.89-3.11-2.88-3.11-7.76 0-4.87 3.53-7.95 3.52-3.07 8.32-3.07 4.8 0 8.18 3.07v-2.85q0-4.65-1.84-7.24-1.84-2.58-4.54-2.58t-4.69 1.23q-1.98 1.24-4.16 3.79l-3.37-3.82q5.1-6.6 12.82-6.6 12.15 0 12.15 13.72 0 13.73.08 22.43h-5.33l-.22-3.3-.23-.15q-1.05 1.5-3.86 2.73-2.81 1.24-5.74 1.24m9-11.1q-.07-2.7-2.25-4.2-2.17-1.5-5.25-1.5-3.07 0-4.8 1.73-1.72 1.72-1.72 4.12 0 2.4 1.76 4.16 1.76 1.77 4.84 1.77 3.07 0 5.21-1.54t2.21-4.54"></path><rect width="26.48" height="36.67" x="-13.24" y="-18.34" fill="none" rx="0" ry="0" transform="translate(124.92 47.16)"></rect><path fill="#fff" d="m143.732 29.226 5.4-.6.68 7.12.45-.07q3.97-7.5 10.42-7.5 3 0 6.15 1.87l-2.62 5.78q-2.7-1.73-5.22-1.73-2.51 0-4.46 2.21-1.95 2.22-3.04 6-1.08 3.79-1.08 8.89 0 5.1.37 13.2l-6.97.3q.15-12.15.15-20.1Z"></path><rect width="23.1" height="36.52" x="-11.55" y="-18.26" fill="none" rx="0" ry="0" transform="translate(155.78 46.94)"></rect><path fill="#fff" d="m196.762 49.096-22.13.15q0 4.8 2.7 7.69 2.7 2.89 6.08 2.89 3.37 0 5.81-1.09 2.44-1.09 3.49-2.14l.97-1.12 3.08 4.05q-4.35 5.25-13.5 5.25-7.35 0-11.18-4.43-3.82-4.42-3.82-12.19 0-7.76 4.83-13.65 4.84-5.88 12.42-5.88 6.07 0 8.88 4.16 2.82 4.16 2.82 10.84 0 2.77-.45 5.47m-5.4-4.27q0-5.4-1.62-8.18-1.61-2.77-5.7-2.77-4.08 0-6.75 3.56-2.66 3.56-2.73 7.54z"></path><rect width="28.95" height="36.15" x="-14.47" y="-18.07" fill="none" rx="0" ry="0" transform="translate(183.24 47.2)"></rect><path fill="#ffeb3b" d="m226.082 64.776.3-15.15q0-15.45-4.35-15.45-3.07 0-6.6 3.26-3.52 3.26-4.8 8.14-.82 3.15-.82 11.32l.3 7.43-6.68.45q.15-18.38.15-22.65l-.45-12.83 5.25-.45 1.73 7.43h.3q.3-.3.78-.87.49-.56 2.03-1.91 1.54-1.35 3.04-2.4 4.12-2.77 7.61-2.77t5.29 2.1q1.8 2.1 2.7 6l.37.15q6.6-8.25 14.93-8.25 3.67 0 5.55 3.37 1.87 3.38 1.87 9.15v7.5q0 12.38.23 16.2l-6.53.45q.3-14.4.3-21.3 0-8.92-3.97-8.92-3.98 0-7.99 4.57-4.01 4.58-4.01 8.85l-.15 16.13Z"></path><rect width="51.68" height="36.67" x="-25.84" y="-18.34" fill="none" rx="0" ry="0" transform="translate(229.47 47.16)"></rect><path fill="#ffeb3b" d="m288.562 49.096-22.13.15q0 4.8 2.7 7.69 2.7 2.89 6.08 2.89 3.37 0 5.81-1.09 2.44-1.09 3.49-2.14l.97-1.12 3.08 4.05q-4.35 5.25-13.5 5.25-7.35 0-11.18-4.43-3.82-4.42-3.82-12.19 0-7.76 4.83-13.65 4.84-5.88 12.42-5.88 6.07 0 8.88 4.16 2.82 4.16 2.82 10.84 0 2.77-.45 5.47m-5.4-4.27q0-5.4-1.62-8.18-1.61-2.77-5.7-2.77-4.08 0-6.75 3.56-2.66 3.56-2.73 7.54z"></path><rect width="28.95" height="36.15" x="-14.47" y="-18.07" fill="none" rx="0" ry="0" transform="translate(275.04 47.2)"></rect><path fill="#ffeb3b" d="M303.712 64.996q-4.88 0-7.99-2.89-3.11-2.88-3.11-7.76 0-4.87 3.52-7.95 3.53-3.07 8.33-3.07 4.8 0 8.17 3.07v-2.85q0-4.65-1.84-7.24-1.83-2.58-4.53-2.58t-4.69 1.23q-1.99 1.24-4.16 3.79l-3.38-3.82q5.1-6.6 12.83-6.6 12.15 0 12.15 13.72 0 13.73.07 22.43h-5.32l-.23-3.3-.22-.15q-1.05 1.5-3.87 2.73-2.81 1.24-5.73 1.24m9-11.1q-.08-2.7-2.25-4.2-2.18-1.5-5.25-1.5-3.08 0-4.8 1.73-1.73 1.72-1.73 4.12 0 2.4 1.76 4.16 1.77 1.77 4.84 1.77 3.08 0 5.21-1.54 2.14-1.54 2.22-4.54"></path><rect width="26.47" height="36.67" x="-13.23" y="-18.34" fill="none" rx="0" ry="0" transform="translate(306.35 47.16)"></rect><path fill="#ffeb3b" d="m320.962 15.876-.23-5.55 12.6-.6q-.67 29.02-.67 33.97l-.15 20.63-6 .45v-21.23q0-10.65-.38-28.42Z"></path><rect width="12.6" height="55.05" x="-6.3" y="-27.52" fill="none" rx="0" ry="0" transform="translate(327.53 37.75)"></rect><path fill="#ffeb3b" d="M342.112 54.426q2.1 2.17 5.58 3.63 3.49 1.47 6.49 1.47t4.61-1.5q1.62-1.5 1.62-3.34 0-1.84-2.1-2.78-2.1-.93-5.07-1.5-2.96-.56-5.92-1.46-2.96-.9-5.06-3.07-2.1-2.18-2.1-5.7 0-5.4 3.71-8.63 3.71-3.22 8.89-3.22 7.87 0 13.35 4.42l-2.78 5.03q-1.8-1.58-5.1-2.85-3.3-1.28-6.22-1.28-2.93 0-4.73 1.54-1.8 1.54-1.8 4.39 0 1.72 2.14 2.73 2.14 1.02 5.21 1.65 3.08.64 6.19 1.54 3.11.9 5.25 3t2.14 5.4q0 4.73-3.57 7.69-3.56 2.96-8.4 2.96-4.83 0-9-1.54-4.16-1.53-6.78-4.01.9-1.05 3.45-4.57"></path><rect width="27.75" height="36.22" x="-13.88" y="-18.11" fill="none" rx="0" ry="0" transform="translate(353.04 46.94)"></rect><path fill="#ffeb3b" d="M402.674 29.713c-4.245-4.245 1.984-11.201-5.882-19.068-6.304-6.304-17.811-8.593-21.685-4.718-3.873 3.874-1.584 15.38 4.718 21.683 7.867 7.868 14.825 1.637 19.07 5.882 3.09 3.09 28.013 31.02 29.521 32.527 1.666 1.665 4.536 1.497 6.408-.376 1.875-1.874 2.042-4.745.378-6.41-1.508-1.506-29.458-26.45-32.528-29.52"></path><path fill="#ffeb3b" d="M445.355 10.62c-.427-.426-1.042-.502-1.375-.17l-13.332 13.332c-.332.332-.95.255-1.375-.172l-.032-.03c-.426-.428-.504-1.045-.172-1.377L442.4 8.872c.332-.333.257-.949-.17-1.375-.427-.425-1.041-.502-1.373-.17L427.526 20.66c-.332.332-.949.254-1.377-.173l-.03-.03c-.428-.428-.505-1.044-.172-1.377l13.331-13.33c.333-.332.256-.948-.17-1.374-.426-.427-1.042-.503-1.374-.17l-13.33 13.332c-.334.33-.951.254-1.377-.173l-.03-.031c-.429-.427-.506-1.043-.174-1.377l13.332-13.33c.333-.333.256-.948-.17-1.375-.426-.426-1.041-.502-1.374-.17L417.343 18.35c-2.3 2.611.454 6.665-2.2 9.32l-2.048 2.044c-.593.592-2.105 1.994-4.166 3.876a2110.044 2110.044 0 0 0 4.275 3.876c1.79-1.957 3.117-3.386 3.687-3.956l2.045-2.045c2.655-2.656 6.71.1 9.322-2.202l17.266-17.267c.333-.334.257-.948-.17-1.375m-64.788 48.613c-1.665 1.665-1.497 4.536.376 6.41 1.874 1.873 4.744 2.04 6.41.376.955-.956 11.339-12.535 19.594-21.665-1.62-1.79-3.138-3.467-4.462-4.92-9.172 8.285-20.953 18.835-21.918 19.8"></path></svg></svg>